<svg width="24" height="24" viewBox="0 0 24 24" fill="none" xmlns="http://www.w3.org/2000/svg">
<path fill-rule="evenodd" clip-rule="evenodd" d="M12 23C18.0751 23 23 18.0751 23 12C23 5.92487 18.0751 1 12 1C5.92487 1 1 5.92487 1 12C1 18.0751 5.92487 23 12 23Z" fill="#8B8FA1"/>
<path fill-rule="evenodd" clip-rule="evenodd" d="M12.91 18.181V16.669C14.59 16.403 15.514 15.213 15.514 13.925C15.514 12.665 14.716 11.615 12.952 11.223L11.678 10.929C11.02 10.789 10.712 10.425 10.712 9.991C10.712 9.417 11.202 8.899 12.098 8.899C13.246 8.899 13.61 9.711 13.694 10.201L15.416 9.711C15.22 8.773 14.52 7.653 12.91 7.359V5.819H11.482V7.317C9.98396 7.555 8.83596 8.647 8.83596 10.131C8.83596 11.475 9.77396 12.427 11.286 12.763L12.574 13.043C13.274 13.197 13.624 13.561 13.624 14.037C13.624 14.653 13.092 15.087 12.182 15.087C10.894 15.087 10.306 14.275 10.222 13.393L8.48596 13.813C8.61196 15.003 9.53596 16.417 11.482 16.683V18.181H12.91Z" fill="white"/>
</svg>
