<svg width="24" height="24" viewBox="0 0 24 24" fill="none" xmlns="http://www.w3.org/2000/svg">
<path fill-rule="evenodd" clip-rule="evenodd" d="M12 23C18.0751 23 23 18.0751 23 12C23 5.92487 18.0751 1 12 1C5.92487 1 1 5.92487 1 12C1 18.0751 5.92487 23 12 23Z" fill="#8B8FA1"/>
<path fill-rule="evenodd" clip-rule="evenodd" d="M14.4 9.2C14.4 10.5255 13.3255 11.6 12 11.6C10.6745 11.6 9.6 10.5255 9.6 9.2C9.6 7.87452 10.6745 6.8 12 6.8C13.3255 6.8 14.4 7.87452 14.4 9.2ZM12 12.4C14.2091 12.4 16 14.1909 16 16.4C16 16.4 15.3324 17.2 12 17.2C8.66763 17.2 8 16.4 8 16.4C8 14.1909 9.79086 12.4 12 12.4Z" fill="white"/>
</svg>
