<svg width="24" height="24" viewBox="0 0 24 24" fill="none" xmlns="http://www.w3.org/2000/svg">
<path fill-rule="evenodd" clip-rule="evenodd" d="M12 23C18.0751 23 23 18.0751 23 12C23 5.92487 18.0751 1 12 1C5.92487 1 1 5.92487 1 12C1 18.0751 5.92487 23 12 23Z" fill="#8B8FA1"/>
<path fill-rule="evenodd" clip-rule="evenodd" d="M7 9.28062C7 8.17605 7.89543 7.28062 9 7.28062L12 7.28062L15 7.28062C16.1046 7.28062 17 8.17605 17 9.28062V14.3194C17 14.9269 16.7238 15.5016 16.2494 15.8811L13.2494 18.2811C12.519 18.8655 11.481 18.8655 10.7506 18.2811L7.75061 15.8811C7.27618 15.5016 7 14.9269 7 14.3194V9.28062Z" fill="white"/>
</svg>
