<svg width="24" height="24" viewBox="0 0 24 24" fill="none" xmlns="http://www.w3.org/2000/svg">
<path fill-rule="evenodd" clip-rule="evenodd" d="M12 23C18.0751 23 23 18.0751 23 12C23 5.92487 18.0751 1 12 1C5.92487 1 1 5.92487 1 12C1 18.0751 5.92487 23 12 23Z" fill="#8B8FA1"/>
<path fill-rule="evenodd" clip-rule="evenodd" d="M12.7625 16.0725C12.2851 15.8215 11.7148 15.8215 11.2374 16.0725L11.0861 16.1521C9.88388 16.7841 8.47879 15.7633 8.70839 14.4246L8.73729 14.2561C8.82846 13.7245 8.65222 13.1821 8.266 12.8056L8.14359 12.6863C7.17098 11.7382 7.70768 10.0865 9.05179 9.89114L9.22095 9.86656C9.7547 9.789 10.2161 9.45377 10.4548 8.97011L10.5305 8.81683C11.1316 7.59886 12.8684 7.59886 13.4695 8.81683L13.5451 8.97011C13.7838 9.45377 14.2452 9.789 14.779 9.86656L14.9481 9.89114C16.2922 10.0865 16.8289 11.7382 15.8563 12.6863L15.7339 12.8056C15.3477 13.1821 15.1715 13.7245 15.2626 14.2561L15.2915 14.4246C15.5211 15.7633 14.116 16.7841 12.9138 16.1521L12.7625 16.0725Z" fill="white"/>
</svg>
