<svg width="40" height="40" viewBox="0 0 40 40" fill="none" xmlns="http://www.w3.org/2000/svg">
<path fill-rule="evenodd" clip-rule="evenodd" d="M20 40C31.0457 40 40 31.0457 40 20C40 8.9543 31.0457 0 20 0C8.9543 0 0 8.9543 0 20C0 31.0457 8.9543 40 20 40Z" fill="#EEEEEE"/>
<path fill-rule="evenodd" clip-rule="evenodd" d="M19.9914 12.5426C21.7275 12.5426 23.137 13.9521 23.137 15.6883C23.137 17.4244 21.7275 18.834 19.9914 18.834C18.2552 18.834 16.8457 17.4244 16.8457 15.6883C16.8457 13.9521 18.2552 12.5426 19.9914 12.5426Z" stroke="black" stroke-linecap="round" stroke-linejoin="round"/>
<path fill-rule="evenodd" clip-rule="evenodd" d="M15.2849 25.5518C15.2849 22.9542 17.3938 20.8453 19.9914 20.8453C22.589 20.8453 24.6979 22.9542 24.6979 25.5518C24.6979 28.1494 15.2849 28.1494 15.2849 25.5518Z" stroke="black" stroke-linecap="round" stroke-linejoin="round"/>
</svg>
